<svg width="19" height="20" viewBox="0 0 19 20" fill="none" xmlns="http://www.w3.org/2000/svg">
<path d="M12.5957 9.96136C12.5957 9.04805 12.2942 8.2663 11.6913 7.61614C11.0883 6.966 10.3457 6.64091 9.46329 6.64091C8.58093 6.64091 7.83829 6.966 7.23533 7.61614C6.6324 8.2663 6.32357 9.04805 6.30887 9.96136C6.29415 10.8747 6.60297 11.6564 7.23533 12.3066C7.86769 12.9567 8.61035 13.2818 9.46329 13.2818C10.3162 13.2818 11.0589 12.9567 11.6913 12.3066C12.3236 11.6564 12.6251 10.8747 12.5957 9.96136ZM14.2942 9.96136C14.2942 11.37 13.8236 12.5775 12.8824 13.5837C11.9412 14.5899 10.8015 15.0852 9.46329 15.0697C8.12506 15.0543 6.97799 14.5589 6.0221 13.5837C5.06622 12.6084 4.59562 11.401 4.61032 9.96136C4.62502 8.52172 5.09561 7.31427 6.0221 6.33905C6.94856 5.3638 8.09564 4.86844 9.46329 4.85297C10.8309 4.8375 11.9707 5.33286 12.8824 6.33905C13.7942 7.34525 14.2648 8.55269 14.2942 9.96136ZM15.6398 4.644C15.6398 4.96908 15.5295 5.24772 15.3089 5.47991C15.0883 5.71211 14.8163 5.82822 14.4927 5.82822C14.1692 5.82822 13.9045 5.71211 13.6986 5.47991C13.4927 5.24772 13.3824 4.96908 13.3677 4.644C13.353 4.31891 13.4633 4.04027 13.6986 3.80808C13.9339 3.57589 14.1986 3.45978 14.4927 3.45978C14.7869 3.45978 15.0589 3.57589 15.3089 3.80808C15.5589 4.04027 15.6692 4.31891 15.6398 4.644ZM9.46329 1.78794C9.40447 1.78794 9.08828 1.78794 8.51474 1.78794C7.94123 1.78794 7.5074 1.78794 7.21327 1.78794C6.91917 1.78794 6.52209 1.80342 6.0221 1.83438C5.52209 1.86534 5.10298 1.90404 4.76472 1.95048C4.4265 1.99691 4.13237 2.08206 3.88239 2.2059C3.47061 2.37618 3.1103 2.62386 2.8015 2.94894C2.49266 3.27403 2.25001 3.65328 2.07354 4.08672C1.9853 4.33439 1.91178 4.644 1.85295 5.0155C1.79413 5.38702 1.75001 5.83594 1.7206 6.36227C1.69119 6.88858 1.68383 7.2988 1.69854 7.59291C1.71325 7.88705 1.71325 8.34369 1.69854 8.96291C1.68383 9.58211 1.68383 9.91491 1.69854 9.96136C1.71325 10.0078 1.71325 10.3406 1.69854 10.9598C1.68383 11.579 1.68383 12.0357 1.69854 12.3298C1.71325 12.6239 1.7206 13.0341 1.7206 13.5604C1.7206 14.0868 1.76472 14.5357 1.85295 14.9072C1.94119 15.2787 2.01472 15.5883 2.07354 15.836C2.25001 16.2694 2.49266 16.6487 2.8015 16.9738C3.1103 17.2989 3.47061 17.5466 3.88239 17.7168C4.11767 17.8097 4.4118 17.8948 4.76472 17.9722C5.11768 18.0496 5.53681 18.0883 6.0221 18.0883C6.50739 18.0883 6.90444 18.1038 7.21327 18.1348C7.5221 18.1657 7.95593 18.1657 8.51474 18.1348C9.07358 18.1038 9.38977 18.1038 9.46329 18.1348C9.53681 18.1657 9.84564 18.1657 10.3898 18.1348C10.9339 18.1038 11.3677 18.1038 11.6913 18.1348C12.0148 18.1657 12.4118 18.1503 12.8824 18.0883C13.353 18.0264 13.7795 17.9877 14.1619 17.9722C14.5442 17.9568 14.831 17.8716 15.0221 17.7168C15.4339 17.5466 15.8016 17.2989 16.1251 16.9738C16.4486 16.6487 16.6839 16.2694 16.831 15.836C16.9192 15.5883 16.9928 15.2787 17.0516 14.9072C17.1104 14.5357 17.1545 14.0868 17.1839 13.5604C17.2133 13.0341 17.2207 12.6239 17.206 12.3298C17.1913 12.0357 17.1913 11.579 17.206 10.9598C17.2207 10.3406 17.2207 10.0078 17.206 9.96136C17.1913 9.91491 17.1913 9.58211 17.206 8.96291C17.2207 8.34369 17.2207 7.88705 17.206 7.59291C17.1913 7.2988 17.1839 6.88858 17.1839 6.36227C17.1839 5.83594 17.1398 5.38702 17.0516 5.0155C16.9633 4.644 16.8898 4.33439 16.831 4.08672C16.6692 3.65328 16.4339 3.27403 16.1251 2.94894C15.8163 2.62386 15.4486 2.37618 15.0221 2.2059C14.7869 2.11302 14.5001 2.02788 14.1619 1.95048C13.8236 1.87308 13.3971 1.83438 12.8824 1.83438C12.3677 1.83438 11.9707 1.8189 11.6913 1.78794C11.4118 1.75698 10.978 1.75698 10.3898 1.78794C9.80152 1.8189 9.49272 1.8189 9.46329 1.78794ZM18.9045 9.96136C18.9045 11.9428 18.8825 13.3128 18.8383 14.0713C18.7648 15.867 18.2575 17.2602 17.3163 18.2509C16.3751 19.2416 15.0589 19.7757 13.3677 19.8531C12.6324 19.8995 11.3309 19.9227 9.46329 19.9227C7.59565 19.9227 6.29415 19.8995 5.55885 19.8531C3.85296 19.7602 2.52943 19.2261 1.58824 18.2509C0.647063 17.2756 0.139707 15.8824 0.066177 14.0713C0.0220589 13.3128 0 11.9428 0 9.96136C0 7.97991 0.0220589 6.60994 0.066177 5.85144C0.139707 4.05575 0.647063 2.66256 1.58824 1.67184C2.52943 0.68112 3.85296 0.147061 5.55885 0.0696606C6.27945 0.0232209 7.58092 0 9.46329 0C11.3457 0 12.6471 0.0232209 13.3677 0.0696606C15.0736 0.16254 16.3898 0.696601 17.3163 1.67184C18.2427 2.64708 18.7501 4.04028 18.8383 5.85144C18.8825 6.60994 18.9045 7.97991 18.9045 9.96136Z" fill="black"/>
</svg>
