<svg width="15" height="15" viewBox="0 0 15 15" fill="none" xmlns="http://www.w3.org/2000/svg">
<path d="M12.8192 0.0693359H2.10232C0.963649 0.0693359 0.0928955 1.14741 0.0928955 2.55718V12.5086C0.0928955 13.9184 0.963649 14.9964 2.10232 14.9964H12.8192C13.9579 14.9964 14.8286 13.9184 14.8286 12.5086V2.55718C14.8286 1.14741 13.9579 0.0693359 12.8192 0.0693359ZM2.10234 1.7279H12.8192C13.0872 1.7279 13.2881 1.89375 13.4221 2.22547L7.4608 7.36701L1.49952 2.22547C1.63348 1.89375 1.83442 1.7279 2.10236 1.7279H2.10234ZM12.8192 13.3379H2.10232C1.70043 13.3379 1.4325 13.0062 1.4325 12.5086V4.13282L7.05887 9.02561C7.19284 9.10854 7.3268 9.19144 7.46076 9.19144C7.59472 9.19144 7.72868 9.10851 7.86264 9.02561L13.489 4.13282V12.5086C13.489 13.0062 13.2211 13.3379 12.8192 13.3379H12.8192Z" fill="#F4AB00"/>
</svg>
