<svg width="15" height="20" viewBox="0 0 15 20" fill="none" xmlns="http://www.w3.org/2000/svg">
<path d="M0 7.48816C0 5.41826 0.723136 3.65354 2.16941 2.194C3.61567 0.734462 5.38041 0.0113247 7.46355 0.0245934C9.54671 0.0378619 11.3114 0.760997 12.7577 2.194C14.204 3.627 14.9271 5.39171 14.9271 7.48816C14.9271 8.52309 14.7414 9.58459 14.3698 10.6726C13.9983 11.7606 13.4344 12.8619 12.6781 13.9765C11.9218 15.091 11.2517 16.0264 10.6679 16.7828C10.0841 17.5391 9.35433 18.4214 8.4786 19.4299C8.21324 19.7615 7.88814 19.9274 7.50336 19.9274H7.42376C7.03895 19.9274 6.71388 19.7615 6.44852 19.4299C5.57279 18.4082 4.84302 17.5258 4.25921 16.7828C3.67538 16.0397 3.00533 15.1043 2.24902 13.9765C1.49271 12.8486 0.928798 11.7474 0.557279 10.6726C0.18576 9.59785 0 8.53638 0 7.48816ZM1.25388 7.48816C1.25388 8.4435 1.43964 9.43864 1.81116 10.4736C2.18268 11.5085 2.7466 12.5766 3.5029 13.6779C4.25921 14.7792 4.88945 15.6284 5.39367 16.2255C5.89786 16.8226 6.56129 17.6187 7.38395 18.6138H7.42376C7.45029 18.6404 7.46355 18.6669 7.46355 18.6934L7.54317 18.6138C8.36581 17.6452 9.02924 16.8491 9.53345 16.2255C10.0376 15.6019 10.6613 14.7527 11.4043 13.6779C12.1474 12.6032 12.7179 11.5351 13.116 10.4736C13.514 9.41209 13.7064 8.41695 13.6931 7.48816C13.6931 5.77652 13.0828 4.31033 11.8621 3.08964C10.6414 1.86892 9.17519 1.2652 7.46355 1.27847C5.75191 1.29174 4.28574 1.89546 3.06502 3.08964C1.84433 4.2838 1.24061 5.74997 1.25388 7.48816ZM3.74174 7.32892C3.74174 6.29397 4.09998 5.41161 4.81648 4.68185C5.53298 3.95209 6.41533 3.59383 7.46355 3.60709C8.51176 3.62038 9.39412 3.97861 10.1106 4.68185C10.8271 5.38509 11.192 6.26745 11.2053 7.32892C11.2185 8.3904 10.8537 9.27278 10.1106 9.976C9.36759 10.6792 8.48524 11.0441 7.46355 11.0707C6.44188 11.0972 5.55952 10.7323 4.81648 9.976C4.07345 9.21969 3.71519 8.33733 3.74174 7.32892ZM4.35871 7.32892C4.35871 8.19138 4.6639 8.92778 5.27424 9.53814C5.8846 10.1485 6.61438 10.447 7.46355 10.4338C8.31274 10.4205 9.04252 10.1219 9.65286 9.53814C10.2632 8.95433 10.5684 8.21792 10.5684 7.32892C10.5684 6.43992 10.2632 5.71016 9.65286 5.13961C9.04252 4.56907 8.31274 4.2639 7.46355 4.22409C6.61438 4.18428 5.8846 4.48945 5.27424 5.13961C4.6639 5.78978 4.35871 6.51954 4.35871 7.32892Z" fill="#F4AB00"/>
</svg>
