<svg width="15" height="18" viewBox="0 0 15 18" fill="none" xmlns="http://www.w3.org/2000/svg">
<g clip-path="url(#clip0_1_665)">
<path d="M12.4485 10.9051C11.868 10.8267 11.2875 10.67 10.7715 10.4349C10.062 10.1214 9.28798 10.3565 8.70748 10.9834L8.25598 11.532C7.09498 10.5916 6.06298 9.4161 5.28898 7.92712L5.74048 7.37854C6.25648 6.7516 6.44998 5.73283 6.19198 4.87078C5.99848 4.24387 5.8695 3.53856 5.80498 2.83325C5.676 1.65774 4.83748 0.795702 3.87 0.795702H1.935C1.8705 0.795702 1.806 0.795702 1.7415 0.795702C1.2255 0.874074 0.773998 1.18753 0.451504 1.65774C0.12901 2.12794 0 2.75486 0 3.38182C0.1935 5.88956 0.967498 8.39735 2.06398 10.5133C3.096 12.4725 4.51498 14.1965 6.12748 15.4504C7.86898 16.861 9.93296 17.7231 11.997 17.9582C12.0615 17.9582 12.126 17.9582 12.1905 17.9582C12.7065 17.9582 13.2225 17.7231 13.545 17.2528C13.8675 16.7826 14.1255 16.2341 14.1255 15.6071V13.2561C14.1255 12.0806 13.416 11.0618 12.4485 10.9051L12.4485 10.9051ZM12.8355 13.2561V15.6071C12.8355 15.8422 12.771 15.9989 12.642 16.1557C12.513 16.3124 12.384 16.3908 12.126 16.3908C10.2555 16.1557 8.44948 15.372 6.83698 14.1181C5.35348 13.021 4.12798 11.4537 3.16048 9.6512C2.12848 7.69201 1.48349 5.49775 1.28999 3.22507C1.28999 2.98996 1.3545 2.83325 1.41899 2.67649C1.54798 2.51976 1.74148 2.36302 1.93498 2.36302H3.86998C4.19246 2.36302 4.45048 2.67649 4.51498 3.06833C4.57948 3.85201 4.77298 4.71405 5.03098 5.41936C5.09548 5.73283 5.03098 6.04627 4.90198 6.28138L4.06348 7.22179C3.86998 7.45689 3.80548 7.84873 3.93448 8.1622C4.90198 10.2781 6.32098 12.0022 8.06248 13.1777C8.32048 13.3345 8.64298 13.3345 8.83648 13.021L9.67498 12.0022C9.86848 11.7671 10.1265 11.6887 10.3845 11.8455C11.0295 12.159 11.6745 12.3157 12.3195 12.4724C12.5775 12.5508 12.8355 12.8642 12.8355 13.2561ZM9.09446 0.012003C8.77198 -0.0663706 8.44946 0.247105 8.38498 0.717307C8.32046 1.10914 8.57848 1.50099 8.96546 1.57934C11.352 1.89282 13.2225 4.16545 13.545 7.14342C13.6095 7.53526 13.8674 7.84873 14.19 7.84873H14.2545C14.577 7.77036 14.835 7.37852 14.835 6.98668C14.448 3.30343 12.0615 0.403833 9.09448 0.012003H9.09446ZM10.9005 7.14344C10.965 7.53526 11.223 7.77036 11.5455 7.77036C11.61 7.77036 11.61 7.77036 11.6745 7.77036C11.997 7.69199 12.255 7.30015 12.1905 6.82997C11.868 4.94915 10.707 3.46017 9.15896 3.1467C8.83648 3.06833 8.44948 3.30343 8.38498 3.77364C8.32046 4.24384 8.51396 4.63566 8.90096 4.71405C9.93296 4.94915 10.707 5.88956 10.9005 7.14344Z" fill="#F4AB00"/>
</g>
<defs>
<clipPath id="clip0_1_665">
<rect width="15" height="18" fill="white"/>
</clipPath>
</defs>
</svg>
