<?xml version="1.0" encoding="utf-8"?>
<svg width="96px" height="96px" viewBox="0 0 96 96" version="1.1" xmlns:xlink="http://www.w3.org/1999/xlink" xmlns="http://www.w3.org/2000/svg">
  <defs>
    <path d="M0 0L96 0L96 96L0 96L0 0Z" id="path_1" />
    <clipPath id="mask_1">
      <use xlink:href="#path_1" />
    </clipPath>
  </defs>
  <g id="Marketing-icon-(1)">
    <path d="M0 0L96 0L96 96L0 96L0 0Z" id="Background" fill="#FFFFFF" fill-opacity="0" fill-rule="evenodd" stroke="none" />
    <g clip-path="url(#mask_1)">
      <g id="Group" transform="translate(10 12)">
        <path d="M36 2C36 3.9 35.3 4 18 4L0 4L0 33L0 62L12.6 62C23 62 25.1 62.2 24.7 63.4C21.4 71.9 21.5 76 24.8 76C27.4 76 28.5 74.5 30.6 67.7L32.4 62L38 62L43.6 62L45.4 67.7C47.5 74.5 48.6 76 51.2 76C54.5 76 54.6 71.9 51.3 63.4C50.9 62.2 53 62 63.4 62L76 62L76 33L76 4L58 4C40.7 4 40 3.9 40 2C40 0.699997 39.3 0 38 0C36.7 0 36 0.699997 36 2L36 2ZM59.5 29L59.5 43.5L54 43.5L48.5 43.5L48.2 30.1C48.1 22.7 48.2 16 48.5 15.2C48.8 14.3 50.5 14 54.2 14.2L59.5 14.5L59.5 29L59.5 29ZM43.5 33L43.5 43.5L38 43.5L32.5 43.5L32.2 34.1C32.1 28.9 32.2 24 32.4 23.3C32.8 22.3 34.5 22 38.2 22.2L43.5 22.5L43.5 33L43.5 33ZM26.8 31.2C27.5 31.9 28 34.5 28 37C28 42.4 26.7 44 22.4 44C16.7 44 16 43.3 16 37.6C16 31.5 17.2 30 22 30C24 30 26.1 30.5 26.8 31.2L26.8 31.2ZM63.5 50C63.5 51.3 59.9 51.5 37.8 51.8C12.4 52 12 52 12 50C12 48 12.4 48 37.8 48.2C59.9 48.5 63.5 48.7 63.5 50L63.5 50Z" id="Shape" fill="#0666B7" fill-rule="evenodd" stroke="none" />
      </g>
    </g>
  </g>
</svg>