<svg width="11" height="12" viewBox="0 0 11 12" fill="none" xmlns="http://www.w3.org/2000/svg">
<path d="M1.26929 4.28328C1.26929 3.76886 1.35181 3.28446 1.51685 2.83006C1.68189 2.37568 1.9098 1.977 2.20059 1.63406C2.49137 1.29112 2.82538 0.995334 3.20262 0.746702C3.57985 0.49807 3.98459 0.309453 4.41684 0.180848C4.8491 0.0522468 5.29313 -0.00776847 5.74895 0.000805801C6.44056 0.000805801 7.08499 0.159416 7.68229 0.476636C8.27957 0.793856 8.7629 1.25683 9.13228 1.86554C9.50166 2.47426 9.68635 3.16015 9.68635 3.92319C9.68635 4.38615 9.64704 4.83628 9.56846 5.27352C9.48987 5.71077 9.35626 6.13515 9.16764 6.54669C8.97903 6.95822 8.75898 7.31402 8.50749 7.61409C8.25599 7.91417 7.94163 8.1628 7.56439 8.35999C7.18716 8.55719 6.77063 8.6472 6.3148 8.63006C6.01615 8.63006 5.72144 8.55289 5.43066 8.39857C5.13988 8.24425 4.92768 8.0342 4.79408 7.76842C4.75478 7.95703 4.69584 8.22709 4.61725 8.57862C4.53866 8.93012 4.48364 9.15732 4.45221 9.26022C4.42077 9.36309 4.37755 9.53455 4.32253 9.77462C4.26752 10.0147 4.20857 10.1819 4.1457 10.2762C4.08283 10.3705 4.01603 10.5205 3.94529 10.7263C3.87457 10.932 3.77239 11.1207 3.6388 11.2921C3.50519 11.4636 3.36765 11.6694 3.22619 11.9094L3.14367 11.948L3.08472 11.8708C3.014 11.1164 2.97863 10.6663 2.97863 10.5205C2.97863 10.0833 3.02579 9.59029 3.12009 9.04159C3.21441 8.49288 3.35979 7.80271 3.55627 6.97108C3.75275 6.13945 3.86671 5.65505 3.89815 5.51786C3.75668 5.20922 3.68594 4.80626 3.68594 4.309C3.68594 3.90605 3.79991 3.53309 4.02782 3.19015C4.25573 2.84722 4.54651 2.67146 4.90018 2.66288C5.16738 2.66288 5.37564 2.76148 5.52498 2.95868C5.67429 3.15586 5.74895 3.4002 5.74895 3.69171C5.74895 4.00892 5.65465 4.46332 5.46603 5.05489C5.27741 5.64646 5.17917 6.09659 5.17131 6.40523C5.17131 6.70529 5.26955 6.95394 5.46603 7.15112C5.6625 7.34831 5.90221 7.44691 6.18513 7.44691C6.42877 7.44691 6.65274 7.38689 6.85708 7.26686C7.06142 7.14683 7.23432 6.98394 7.37578 6.77817C7.51724 6.57242 7.63906 6.34522 7.74122 6.09659C7.84339 5.84795 7.92591 5.58646 7.98878 5.31211C8.05166 5.03776 8.09489 4.77197 8.11847 4.51477C8.14203 4.25755 8.15776 4.01751 8.16561 3.79459C8.16561 2.97152 7.92591 2.32852 7.44651 1.86554C6.9671 1.40258 6.33838 1.17109 5.56033 1.17109C4.68797 1.17109 3.95708 1.47974 3.36765 2.09703C2.77823 2.71432 2.48351 3.4988 2.48351 4.45046C2.48351 4.6648 2.51102 4.87057 2.56603 5.06775C2.62105 5.26495 2.67999 5.41928 2.74286 5.53072C2.80573 5.64219 2.86468 5.75363 2.9197 5.86509C2.97471 5.97655 3.00221 6.04943 3.00221 6.08372C3.00221 6.21232 2.97078 6.38379 2.90791 6.59812C2.84502 6.81246 2.76251 6.91963 2.66034 6.91963C2.65248 6.91963 2.61712 6.91535 2.55424 6.90679C2.32633 6.82962 2.12592 6.69672 1.95303 6.50811C1.78013 6.31949 1.64652 6.09229 1.55221 5.82651C1.4579 5.56074 1.38717 5.30352 1.34002 5.05489C1.29286 4.80626 1.26929 4.54906 1.26929 4.28328Z" fill="black"/>
</svg>
