<svg width="14" height="12" viewBox="0 0 14 12" fill="none" xmlns="http://www.w3.org/2000/svg">
<g clip-path="url(#clip0_1_42)">
<path d="M13.9011 2.28735C13.511 2.77534 13.0366 3.19555 12.4778 3.54799C12.4778 3.6203 12.4778 3.72422 12.4778 3.85978C12.4778 4.51948 12.3671 5.17466 12.1457 5.82532C11.9243 6.47598 11.5869 7.10405 11.1335 7.70951C10.6802 8.31499 10.1372 8.84366 9.50462 9.29551C8.87203 9.74736 8.11292 10.1179 7.22731 10.407C6.34168 10.6962 5.38754 10.8318 4.36484 10.8137C2.77283 10.8137 1.31789 10.4477 0 9.71572C0.200319 9.7338 0.426996 9.74283 0.680031 9.74283C2.00847 9.74283 3.18929 9.39491 4.22251 8.69906C3.60048 8.69003 3.04697 8.52736 2.56198 8.21106C2.07699 7.89478 1.73961 7.49264 1.54984 7.00464C1.75016 7.03174 1.92939 7.0453 2.08753 7.0453C2.34057 7.0453 2.59361 7.0182 2.84664 6.96397C2.18243 6.84649 1.63418 6.56635 1.20192 6.12353C0.769648 5.68072 0.553513 5.1611 0.553513 4.56465V4.53754C0.954151 4.72732 1.38642 4.83125 1.85032 4.84933C1.46022 4.62341 1.1492 4.33422 0.917252 3.98178C0.685302 3.62933 0.569329 3.24075 0.569329 2.81601C0.569329 2.3732 0.701118 1.96201 0.964695 1.58246C1.68163 2.33253 2.54617 2.93348 3.55831 3.38533C4.57043 3.83718 5.66692 4.08569 6.84776 4.13089C6.79503 3.94111 6.76868 3.75585 6.76868 3.57511C6.76868 2.89733 7.04807 2.32349 7.60686 1.85357C8.16565 1.38365 8.83514 1.14417 9.61531 1.13513C10.4482 1.13513 11.1441 1.39269 11.7029 1.90779C12.346 1.79935 12.9522 1.60054 13.5215 1.31135C13.3001 1.88972 12.8784 2.34157 12.2564 2.6669C12.8046 2.61268 13.3529 2.48616 13.9011 2.28735Z" fill="black"/>
</g>
<defs>
<clipPath id="clip0_1_42">
<rect width="14" height="12" fill="white"/>
</clipPath>
</defs>
</svg>
